<mxfile host="app.diagrams.net" modified="2023-03-17T20:25:29.326Z" agent="5.0 (Windows NT 10.0; Win64; x64) AppleWebKit/537.36 (KHTML, like Gecko) Chrome/111.0.0.0 Safari/537.36" etag="Z4lPBVTd4dXCxMbOlvuU" version="21.0.7" type="github">
  <diagram name="Page-1" id="SwCO3sKbL-J0L6yQdvk1">
    <mxGraphModel dx="1687" dy="889" grid="1" gridSize="10" guides="1" tooltips="1" connect="1" arrows="1" fold="1" page="1" pageScale="1" pageWidth="850" pageHeight="1100" math="0" shadow="0">
      <root>
        <mxCell id="0" />
        <mxCell id="1" parent="0" />
        <mxCell id="1r6Gy7szaitaWBNjcdqc-1" value="Data Collection (from web server as realtime)" style="rounded=1;whiteSpace=wrap;html=1;" vertex="1" parent="1">
          <mxGeometry x="90" y="160" width="120" height="60" as="geometry" />
        </mxCell>
      </root>
    </mxGraphModel>
  </diagram>
</mxfile>
